<svg xmlns="http://www.w3.org/2000/svg" width="273" height="216" viewBox="0 0 273 216">
    <g fill="none" fill-rule="evenodd">
        <path stroke="#FFF" d="M230.787 138.6c-7.022-.455-12.575-6.296-12.575-13.432 0-7.435 6.025-13.461 13.46-13.461 7.435 0 13.462 6.026 13.462 13.46 0 7.158-5.588 13.011-12.638 13.437M264.498 98.01a5.196 5.196 0 1 1-10.39 0 5.196 5.196 0 0 1 10.39 0zM207.82 45.582a4.96 4.96 0 1 1-9.92-.001 4.96 4.96 0 0 1 9.92.001zM231.908 37.317a3.07 3.07 0 1 1-6.14 0 3.07 3.07 0 0 1 6.14 0zM199.554 18.896c0 .783-.708 1.492-2.125 2.126-1.417-.634-2.125-1.343-2.125-2.126a2.126 2.126 0 0 1 4.25 0z"/>
        <circle cx="90.224" cy="25.188" r="15.647" fill="#FCC40A" opacity=".7"/>
        <path stroke="#FFF" stroke-linecap="round" stroke-linejoin="round" d="M63.157 18.883a24.572 24.572 0 0 1 2.954-6.699M86.998 50.091a24.64 24.64 0 0 1-8.566-1.526 24.786 24.786 0 0 1-13.114-11.322M111.704 25.385c0 1.968-.23 3.882-.664 5.715M82.445 1.098A24.912 24.912 0 0 1 90.869.98a24.602 24.602 0 0 1 12.194 5.634"/>
        <path stroke="#FFF" d="M143.445 41.232a7.131 7.131 0 1 1-14.263-.002 7.131 7.131 0 0 1 14.263.002z"/>
        <path stroke="#FFF" stroke-width=".977" d="M91.023 73.02a4.026 4.026 0 1 1 5.693 5.694 4.026 4.026 0 0 1-5.693-5.694z"/>
        <path stroke="#FFF" stroke-linecap="round" stroke-linejoin="round" d="M103.154 25.57c0 8.853-7.176 16.03-16.03 16.03-8.852 0-16.029-7.177-16.029-16.03 0-8.852 7.177-16.029 16.03-16.029 8.853 0 16.03 7.177 16.03 16.03z"/>
        <path stroke="#FFF" stroke-linecap="round" stroke-linejoin="round" d="M107.52 25.57c0 11.264-9.132 20.395-20.395 20.395-11.265 0-20.395-9.13-20.395-20.394 0-11.264 9.13-20.395 20.395-20.395 11.263 0 20.395 9.131 20.395 20.395z"/>
        <circle cx="235.795" cy="127.068" r="11.62" fill="#FCC40A" opacity=".7"/>
        <circle cx="201.68" cy="46.055" r="5.196" fill="#FCC40A" opacity=".7"/>
        <path fill="#FFF200" fill-opacity=".238" stroke="#FFF" d="M69.456 184.916a5.65 5.65 0 0 0-1.678 4.015c0 3.117 2.55 5.668 5.668 5.668h116.19c3.117 0 5.668-2.55 5.668-5.668a5.646 5.646 0 0 0-1.679-4.015"/>
        <path stroke="#FFF" d="M69.456 184.916h124.17M246.047 177.595c-.305 4.077-3.728 7.321-7.88 7.321h-44.541M22.202 172.872a7.834 7.834 0 0 0-1.184 4.133c0 4.35 3.56 7.911 7.911 7.911h40.526M122.146 172.872H22.202M258.27 166.732c.052-.348.088-.701.088-1.063 0-3.962-3.242-7.203-7.203-7.203H7.203c-3.962 0-7.203 3.241-7.203 7.203s3.241 7.203 7.203 7.203h14.999"/>
        <path stroke="#FFF" d="M122.146 172.872a5.31 5.31 0 0 1-.052-.708c0-2.988 2.444-5.432 5.432-5.432H258.27"/>
        <rect width="67.069" height="4.723" x="30.228" y="173.108" fill="#FCC40A" fill-opacity=".724" rx="2.362"/>
        <rect width="225.768" height="4.723" x="20.782" y="154.215" fill="#FCC40A" fill-opacity=".742" rx="2.362" transform="matrix(1 0 0 -1 0 313.154)"/>
        <path stroke="#FFF" d="M122.146 172.872c.35 2.655 2.633 4.723 5.38 4.723h118.522M258.27 166.732h9.062c2.987 0 5.432 2.444 5.432 5.432 0 2.987-2.445 5.431-5.432 5.431h-21.284"/>
        <path fill="#FCC40A" fill-opacity=".538" stroke="#FFF" d="M153.503 215.145h-9.918a4.263 4.263 0 0 1-4.251-4.251 4.263 4.263 0 0 1 4.25-4.251h9.92a4.263 4.263 0 0 1 4.25 4.25 4.263 4.263 0 0 1-4.25 4.252z"/>
        <path stroke="#FFF" d="M190.084 74.086a25.06 25.06 0 0 0-.418 4.533c0 4.248 1.066 8.246 2.941 11.745M190.128 73.842c-.016.08-.028.162-.044.243M193.336 91.633a25.083 25.083 0 0 1-.728-1.27M215.935 103.481a24.862 24.862 0 0 0 6.973-1.399M193.336 91.633c4.214 6.86 11.657 11.521 20.211 11.866M190.128 73.842c1.718-8.84 8.112-16.005 16.506-18.825M206.634 55.017a24.843 24.843 0 0 1 7.93-1.298c13.753 0 24.901 11.147 24.901 24.9 0 10.825-6.91 20.032-16.557 23.463M32.525 148.957c2.752-4.892 7.985-8.203 13.999-8.203 5.948 0 11.13 3.243 13.905 8.05M62.064 152.799a16.096 16.096 0 0 0-1.635-3.995M30.978 152.799a16.064 16.064 0 0 1 1.547-3.841"/>
        <path stroke="#FFF" d="M73.695 152.799c-1.564-3.124-4.784-5.274-8.515-5.274-1.733 0-3.353.47-4.752 1.279M21.388 152.799a7.296 7.296 0 0 1 6.972-5.152c1.55 0 2.984.487 4.165 1.31M225.44 152.799a12.962 12.962 0 0 0-1.482-4.223M225.121 158.466c-.034.123-.063.25-.102.372M199.85 152.799a12.929 12.929 0 0 1 2.87-6.227M189.898 152.799c-.012-.172-.026-.343-.026-.518a7.697 7.697 0 0 1 7.697-7.697 7.66 7.66 0 0 1 5.15 1.988M62.064 152.799h11.631M62.487 158.466h12.101M21.388 152.799h-.843a2.842 2.842 0 0 0-2.833 2.833 2.842 2.842 0 0 0 2.833 2.834h1.433M30.56 158.466h31.927M193.002 158.466h7.175M225.44 152.799h7.744M230.342 158.466h13.374a2.842 2.842 0 0 0 2.834-2.834 2.842 2.842 0 0 0-2.834-2.833h-10.532M30.978 152.799h31.085M225.121 158.466h-24.944M189.898 152.799h9.952M193.002 158.466H74.588M30.56 158.466h-8.583M30.978 152.799h-9.59M199.85 152.799h25.59M189.898 152.799H73.694M225.121 158.466h5.22M213.842 142.008c.687.063 1.357.18 2.007.345M223.957 148.576a13 13 0 0 0-8.108-6.223M213.842 142.008a13.183 13.183 0 0 0-1.197-.061c-3.984 0-7.545 1.8-9.925 4.626"/>
        <path stroke="#FFF" d="M213.842 142.008V81.655c0-.551.453-1.003 1.003-1.003.552 0 1.004.452 1.004 1.003v60.698"/>
        <path stroke="#FFF" stroke-linecap="round" d="M183.358 116.806h16.926M188.791 131.746h16.926M182 112.731h1.848M190.15 127.672h1.357M198.299 119.522h1.358M191.507 112.731h15.598"/>
        <path stroke="#FFF" d="M230.61 148.525a5.907 5.907 0 0 1 1.77 1.87M233.184 152.799a5.832 5.832 0 0 0-.804-2.405M230.61 148.525a5.855 5.855 0 0 0-3.287-1.008c-1.253 0-2.41.393-3.366 1.06"/>
        <path stroke="#FFF" d="M230.61 148.525v-17.63c0-.487.398-.886.885-.886s.886.399.886.885v19.5M79.507 138.236h-1.575v6.77h8.817v-.788M79.507 138.236h7.242v5.982M175.702 144.218v.787h6.455v-6.613h-1.731M175.702 144.218v-5.826h4.724M79.35 127.915v7.02M81.868 128.787V126.9h-1.49M81.868 134.061v-5.274M79.35 134.934v.468h.157M81.868 134.061v1.34h-2.361M79.35 127.915V126.9h1.028M110.515 144.218c0-.053.007-.104.007-.158 0-5.912-4.793-10.705-10.705-10.705-5.913 0-10.706 4.793-10.706 10.705 0 .054.007.105.008.158"/>
        <path fill="#022A4E" d="M110.515 144.218c-.085 5.84-4.839 10.549-10.698 10.549-5.86 0-10.613-4.71-10.698-10.55"/>
        <path stroke="#FFF" d="M110.515 144.218c-.085 5.84-4.839 10.549-10.698 10.549-5.86 0-10.613-4.71-10.698-10.55M171.916 144.218c0-.053.008-.104.008-.158 0-5.912-4.793-10.705-10.706-10.705-5.913 0-10.706 4.793-10.706 10.705 0 .054.008.105.008.158"/>
        <path fill="#022A4E" d="M150.52 144.218c.085 5.84 4.839 10.549 10.698 10.549 5.86 0 10.613-4.71 10.697-10.55"/>
        <path stroke="#FFF" d="M150.52 144.218c.085 5.84 4.839 10.549 10.698 10.549 5.86 0 10.613-4.71 10.697-10.55M141.932 141.935v-18.342M113.238 141.935v-18.342M137.917 128.238a.356.356 0 0 0-.354-.354h-4.605a.356.356 0 0 0-.355.354c0 .195.16.354.355.354h4.605c.194 0 .354-.16.354-.354zM151.496 128.238a.356.356 0 0 0-.354-.354h-4.605a.356.356 0 0 0-.354.354c0 .195.16.354.354.354h4.605c.194 0 .354-.16.354-.354zM180.426 126.193a5.978 5.978 0 0 1 3.857 5.588 5.979 5.979 0 0 1-3.857 5.586M79.35 127.915a3.52 3.52 0 0 0-3.335 3.509 3.521 3.521 0 0 0 3.334 3.51M79.35 134.934c.052.003.103.015.157.016"/>
        <path stroke="#FFF" d="M80.378 126.9c1.636-3.797 5.41-6.455 9.806-6.455h85.788a4.452 4.452 0 0 1 4.454 4.452v1.296M79.507 138.236v-2.834M79.507 134.95v.452M180.426 138.393v-1.025M180.426 126.193v11.174M175.702 144.218h-3.787M150.52 144.218h-.858M111.136 144.218h-.622M86.75 144.218h2.368M149.662 144.218a1.255 1.255 0 0 1-1.118.708h-36.29c-.493 0-.911-.293-1.118-.708M149.662 144.218c.084-.168.142-.352.142-.55 0-.693-.567-1.261-1.26-1.261h-36.29c-.692 0-1.26.568-1.26 1.26 0 .2.058.383.142.55"/>
        <path stroke="#FFF" d="M110.956 120.445H97.573v-2.362l14.406.02zM106.205 144.06a6.388 6.388 0 1 1-12.776 0 6.388 6.388 0 0 1 12.776 0z"/>
        <path stroke="#FFF" d="M104.636 144.06a4.82 4.82 0 1 1-9.64 0 4.82 4.82 0 0 1 9.64 0zM167.606 144.06a6.388 6.388 0 1 1-12.776 0 6.388 6.388 0 0 1 12.776 0z"/>
        <path stroke="#FFF" d="M166.038 144.06a4.82 4.82 0 1 1-9.64 0 4.82 4.82 0 0 1 9.64 0zM110.956 120.445l6.884-15.21a3.292 3.292 0 0 1 3.005-1.952h43.303c1.191 0 2.275.688 2.783 1.764l7.295 15.398h-63.27z"/>
        <path stroke="#FFF" d="M140.436 106.432h-18.968l-5.79 14.032 24.758-.02zM144.372 120.465l21.865-.02-6.13-14.012h-15.735zM107.531 125.955h-4.172a1.105 1.105 0 0 1-1.102-1.102c0-.607.495-1.102 1.102-1.102h4.172c.607 0 1.103.495 1.103 1.102 0 .606-.496 1.102-1.103 1.102z"/>
        <path stroke="#FFF" stroke-linecap="round" d="M123.905 108.637l4.408 5.51M127.21 108.794l6.613 8.187M149.41 110.054l5.51 6.77M152.402 109.581l2.676 3.307"/>
        <path stroke="#FFF" d="M33.889 108.223c0-.551-.452-1.003-1.003-1.003-.553 0-1.005.452-1.005 1.003v41.73a13.913 13.913 0 0 1 2.008-3.032v-38.698z"/>
        <path stroke="#FFF" stroke-width=".977" d="M31.726 119.225c-9.013-.596-16.14-8.095-16.14-17.26 0-9.553 7.745-17.298 17.3-17.298 9.553 0 17.298 7.745 17.298 17.299 0 9.217-7.21 16.75-16.297 17.269"/>
        <path stroke="#FFF" stroke-linecap="round" stroke-linejoin="round" d="M31.645 131.072l-6.14-6.14M41.8 122.098l-7.557 8.03M216.322 95.648l3.306-5.196M204.514 78.172l9.446 9.447"/>
    </g>
</svg>
